<svg xmlns="http://www.w3.org/2000/svg" width="291.316" height="95.006" viewBox="0 0 291.316 95.006"><path d="M4.422-27.068C6.566-10.184,19.028,1.34,42.478,1.34,66.866,1.34,79.6-10.318,79.6-27.068c0-13.132-5.9-23.048-32.7-29.48C31.892-59.9,28.006-62.578,28.006-69.01c0-6.566,4.824-9.916,13-9.916,11.926,0,15.008,6.164,16.08,11.926h20.1C75.844-80.534,66.062-93.666,41.54-93.666c-21.842,0-33.9,10.854-33.9,26.934,0,12.462,6.164,21.708,31.356,27.6,15.812,3.618,20.234,6.834,20.234,14.472,0,6.7-4.556,10.988-15.276,10.988s-17.286-4.154-19.43-13.4ZM94.336-92.326V0H114.3V-92.326ZM156.11,0h19.966V-75.978h28.006V-92.326H127.97v16.348h28.14Zm61.908-92.326v54.4c0,30.82,17.956,39.262,38.86,39.262,20.368,0,38.86-8.04,38.86-39.664v-54h-20.1v54.94c0,16.884-7.1,23.048-18.492,23.048-10.05,0-19.162-5.226-19.162-23.048v-54.94Z" transform="translate(-4.422 93.666)" fill="#fff"/></svg>